/* XPM */
static char *_a82f619d80441e6e3ebd861bc043affhL95TUVjDS2Jq9XL[] = {
/* columns rows colors chars-per-pixel */
"16 16 109 2 ",
"   c None",
".  c #3F3851",
"X  c #413851",
"o  c #413951",
"O  c #473B53",
"+  c #463C53",
"@  c #453E55",
"#  c #483D53",
"$  c #4B3B54",
"%  c #4A3D54",
"&  c #493F55",
"*  c #4A3F55",
"=  c #4C3C54",
"-  c #4C3F56",
";  c #573E57",
":  c #494055",
">  c #4E4055",
",  c #4D4256",
"<  c #4E4357",
"1  c #4E4457",
"2  c #4D4559",
"3  c #554256",
"4  c #594156",
"5  c #5A4157",
"6  c #584257",
"7  c #5D4257",
"8  c #5D4B5B",
"9  c #624458",
"0  c #69425B",
"q  c #6F465B",
"w  c #634A5B",
"e  c #67495B",
"r  c #614C5C",
"t  c #63505E",
"y  c #6B505D",
"u  c #695360",
"i  c #6D5661",
"p  c #6E5762",
"a  c #6F5762",
"s  c #6F5862",
"d  c #685E6A",
"f  c #795360",
"g  c #7A5560",
"h  c #705B65",
"j  c #715C65",
"k  c #725E66",
"l  c #7E5962",
"z  c #785C65",
"x  c #786067",
"c  c #7D7278",
"v  c #804E5F",
"b  c #8C5161",
"n  c #9A5365",
"m  c #9E5765",
"M  c #935A64",
"N  c #A65667",
"B  c #A45A66",
"V  c #9B696A",
"C  c #9A6B6B",
"Z  c #9D6C6C",
"A  c #867275",
"S  c #897D7F",
"D  c #A16068",
"F  c #A26168",
"G  c #A5676A",
"H  c #A06A6B",
"J  c #A16B6C",
"K  c #A16C6C",
"L  c #A56E6D",
"P  c #BE6D6F",
"I  c #A6706E",
"U  c #AC726F",
"Y  c #AD736F",
"T  c #AE736F",
"R  c #AE7470",
"E  c #A37974",
"W  c #AA7D76",
"Q  c #BF7973",
"!  c #C27A74",
"~  c #C97F76",
"^  c #B68279",
"/  c #B7887D",
"(  c #C58076",
")  c #CD8378",
"_  c #D28E7E",
"`  c #A78983",
"'  c #AB8E84",
"]  c #AC9086",
"[  c #BC9686",
"{  c #BE9887",
"}  c #BE9988",
"|  c #AD9F95",
" . c #B0A197",
".. c #C69484",
"X. c #C59C89",
"o. c #D89583",
"O. c #DA9985",
"+. c #D79D88",
"@. c #D89E89",
"#. c #CBA18C",
"$. c #DDA18A",
"%. c #DEA58E",
"&. c #CCA690",
"*. c #DDAC92",
"=. c #DFAF94",
"-. c #E2AC91",
";. c #E2AD92",
":. c #E3AF94",
">. c #E7BB9D",
/* pixels */
"                                ",
"                                ",
"                                ",
"                                ",
"  2  .' d |  .]  .` Z u C E     ",
"  : } { [ } } { } / Y Y Y R .   ",
"  # Y + . . . . C G O . . v .   ",
"  < ;.& M D D 5 ..$.5 0 ; L X   ",
"  < ;.8 ( ^ Y H #.o.5 N m L X   ",
"  < :.t z _ K W #.O.3 B n L X   ",
"  1 >.r l ) w J &.%.< b $ I X   ",
"  @ S - f g - 9 c A & q X p .   ",
"  < *.X.=.@.*.=.x +.P ~ ! Q X   ",
"    p & h k k k p s y e 7 5     ",
"                                ",
"                                "
};
