/* XPM */
static char *_edcf35efaf946fba3913aecb32a7bebP5WL443sghUPJwg0[] = {
/* columns rows colors chars-per-pixel */
"64 64 8 1 ",
"  c #BF908D",
". c #3F3851",
"X c #EFDCBE",
"o c #E6B698",
"O c #D18679",
"+ c #DC9D88",
"@ c #BB626B",
"# c #A34F68",
/* pixels */
"                                                                ",
"                                                                ",
"                                                                ",
"                                                                ",
"                                                                ",
"                                                                ",
"                                                                ",
"                                                                ",
"                                                                ",
"                                                                ",
"                                                                ",
"                                                                ",
"   .........................................................    ",
"   .........................................................    ",
"   .........................................................    ",
"...XXXXXXoooXXX...XXXXXXXXXoooXXXXXXXXXOOOOOO+++...OOO++++++... ",
"...XXXXXXoooXXX...XXXXXXXXXoooXXXXXXXXXOOOOOO+++...OOO++++++... ",
"...XXXXXXoooXXX...XXXXXXXXXoooXXXXXXXXXOOOOOO+++...OOO++++++... ",
"...XXXXXXoooXXX...XXXXXXXXXoooXXXXXXXXXOOOOOO+++...OOO++++++... ",
"...ooooooooooooooooooooooooooooooooooooOOOOOOOOOOOOOOOOOOOOO... ",
"...ooooooooooooooooooooooooooooooooooooOOOOOOOOOOOOOOOOOOOOO... ",
"............................................................... ",
"............................................................... ",
"............................................................... ",
"............................................................... ",
"............................................................... ",
"............................................................... ",
"...OOOOOO........................OOOOOO@@@...............@@@... ",
"...OOOOOO........................OOOOOO@@@...............@@@... ",
"...OOOOOO........................OOOOOO@@@...............@@@... ",
"...OOOOOO........................OOOOOO@@@...............@@@... ",
"...ooo+++......@@@@@@...@@@......+++oooOOO...###.........OOO... ",
"...ooo+++......@@@@@@...@@@......+++oooOOO...###.........OOO... ",
"...oooooo......OOOOOO...OOO@@@...ooooooOOO...###...###...OOO... ",
"...oooooo......OOOOOO...OOO@@@...ooooooOOO...###...###...OOO... ",
"...oooooo......OOOOOO...OOO@@@...ooooooOOO...###...###...OOO... ",
"...+++ooo...OOOOOO+++...OOOOOO...ooo+++OOO...###@@@@@@...OOO... ",
"...+++ooo...OOOOOO+++...OOOOOO...ooo+++OOO...###@@@@@@...OOO... ",
"...+++ooo...OOOOOO+++...OOOOOO...ooo+++OOO...###@@@@@@...OOO... ",
"...+++ooo...OOOOOO+++...OOOOOO...ooo+++OOO...###@@@@@@...OOO... ",
"...+++ooo...+++...+++OOOOOO+++...ooo+++OOO...@@@@@@@@@...OOO... ",
"...+++ooo...+++...+++OOOOOO+++...ooo+++OOO...@@@@@@@@@...OOO... ",
"...+++ooo...+++...+++OOOOOO+++...ooo+++OOO...@@@@@@@@@...OOO... ",
"...oooooo...+++...OOOOOO...+++...ooooooOOO......@@@###...OOO... ",
"...oooooo...+++...OOOOOO...+++...ooooooOOO......@@@###...OOO... ",
"...oooooo...OOO...OOOOOO...OOO...ooooooOOO......@@@......OOO... ",
"...oooooo...OOO...OOOOOO...OOO...ooooooOOO......@@@......OOO... ",
"...oooooo...OOO...OOOOOO...OOO...ooooooOOO......@@@......OOO... ",
"...oooooo...OOO...OOOOOO...OOO...ooooooOOO......@@@......OOO... ",
"...XXXXXX...@@@OOOOOO@@@...@@@...XXXXXX+++...###@@@......+++... ",
"...XXXXXX...@@@OOOOOO@@@...@@@...XXXXXX+++...###@@@......+++... ",
"...XXXXXX...@@@OOOOOO@@@...@@@...XXXXXX+++...###@@@......+++... ",
"...XXXXXX...@@@OOOOOO@@@...@@@...XXXXXX+++...###@@@......+++... ",
"...XXXXXX...@@@OOOOOO@@@...@@@...XXXXXX+++...###@@@......+++... ",
"...XXXXXX...@@@OOOOOO@@@...@@@...XXXXXX+++...###@@@......+++... ",
"............................................................... ",
"............................................................... ",
"............................................................... ",
"...ooooooooooooooo++++++ooooooooo...oooOOO@@@OOOOOOOOOOOOOOO... ",
"...ooooooooooooooo++++++ooooooooo...oooOOO@@@OOOOOOOOOOOOOOO... ",
"...ooooooooooooooo++++++ooooooooo...oooOOO@@@OOOOOOOOOOOOOOO... ",
"...++++++...+++ooooooooooooooo++++++oooOOOOOOOOO@@@@@@...@@@... ",
"...++++++...+++ooooooooooooooo++++++oooOOOOOOOOO@@@@@@...@@@... ",
"...++++++...+++ooooooooooooooo++++++oooOOOOOOOOO@@@@@@...@@@... "
};
