/* XPM */
static char *e289acadd15f4446cf3de314fb732978q4EHPFuwB6jCs6jd[] = {
/* columns rows colors chars-per-pixel */
"64 64 14 1 ",
"  c #BA9693",
". c #6E5967",
"X c #FBCAAE",
"o c #EDA799",
"O c #FAEBCF",
"+ c #E28989",
"@ c #D2727E",
"# c #926475",
"$ c #AD707B",
"% c #5D7889",
"& c #B98080",
"* c #C39490",
"= c #728896",
"- c #86A0A8",
/* pixels */
"                                                                ",
"                                                                ",
"                                                                ",
"                                                                ",
"                                                                ",
"                                                                ",
"                 .............................                  ",
"               ..Xo.oXXXOXOOXo.oXXXXOXOOOXo.oX..                ",
"               ..Xo.oXXXOXOOXo.oXXXXOXOOOXo.oX..                ",
"             ..oXXX.XXXXXXXXXX.XXXXXXXXXXXX.XXXo..              ",
"            .oOOXXX.XXXXXXXXXX.XXXXXXXXXXXX.XXXOOo.             ",
"          ..oOXXXXo.oXXXXXXXXo.oXXXXXXXXXXo.oXXXXOo.            ",
"         .ooOXXXo++.++++++++++.++++++++++++.++oXXXOo.           ",
"         .XXXXXo++@.........................@++oXXXX.           ",
"        .oXXXXo++...#$$$$$$$#..%...#$$$$$$#...++oXXXo.          ",
"        .XXXXX++...#$$$$$$$$$..%...$$$$$$$$#...++XXXX.          ",
"       .oXXXXo+................%................+oXXXo..        ",
"       .XXXXX++..#$$$$$$$$$$#..%................++XXXX..        ",
"       .XXXXX+..#$$&*******&$..=...$&*******&$#..+XXXX..        ",
"       .oXXXo+..$$$*********$..=...$*********$$..+oXXo..        ",
"       ........................%........................        ",
"       .oXXXo+....$**********$.=..$*********$....+oXXo..        ",
"       .XXXXX+.%=%.***********.%..**********.%=%.+XXXX..        ",
"       .OXXXX+.=-=.***********.=..**********.=-=.+XXXO..        ",
"       .OXXXX+....$***********.=..**********$....+XXXO..        ",
"       .OXXXX+....$***********.=..**********$....+XXXO..        ",
"       .XXXXX+.$*************$.-..$************$.+XXXX..        ",
"       .OXXXX+.................-.................+XXXO..        ",
"       .XXXXX+.................-..$************$.+XXXX..        ",
"       .XXXXX+.#$$$$$$$$$$$$$#.=..**************.+XXXX..        ",
"       .XXXXX+.$$$$$$$$$$$$$$$.-..**************.+XXXX..        ",
"       .oXXXo+.#$$$$$$$$$$$$$#.=..$************$.+oXXo..        ",
"       ........................=........................        ",
"       .oXXXo+.$*************$.%..$************$.+oXXo..        ",
"       .XXXXX+.***************.%..**************.+XXXX..        ",
"       .OXXXX+.*************$......$************.+XXXO..        ",
"       .OXXXX+.$***********&.--.---.&**********$.+XXXO..        ",
"       .XXXXX+...............=-.==-..............+XXXX..        ",
"       .OXXXX+...............=-.==-.$**********$.+XXXO..        ",
"       .XXXXX+..#$$$$$$$$$$#.=-.==-.************.+XXXX..        ",
"       .XXXXX+..$$$$$$$$$$$$.=-.==-.************.+XXXX..        ",
"       .XXXXX+..$$$$$$$$$$$$.=-.==-.************.+XXXX..        ",
"       .XXXXX+..#$$$$$$$$$$#.=-.==-.$**********$.+XXXX..        ",
"       .oXXXo+...............=-.==-..............+oXXo..        ",
"       ........$***********$.=-.==-.....................        ",
"       .oXXXo+.*************.=-.==-.#$$$$$$$$$#..+oXXo..        ",
"       .XXXXX+.*************.=-.==-.$$$$$$$$$$$..+XXXX..        ",
"       .OXXXX+.$***********$.=-.==-.#$$$$$$$$$#..+XXXO..        ",
"       .OXXXX+...............=-.==-..............+XXXO..        ",
"       .XXXXX+.$***********&.%-.%%-.&***********.+XXXX..        ",
"       .OXXXX+....$*********$..%...$********$....+XXXO..        ",
"       .XXXXX+.=-=.**********&.%..&*********.=-=.+XXXX..        ",
"       .XXXXX+.%=%.***********.=..**********.%=%.+XXXX..        ",
"       .XXXXX+....$**********$.=..**********$....+XXXX..        ",
"       .oXXXo+.................=.................+oXXo..        ",
"       ........#$$$$$$$$$$$$#..%..$************$........        ",
"       .oXXXo+.$$$$$$$$$$$$$$..=..**************.+oXXo..        ",
"       .XXXXX+.#$$$$$$$$$$$$#..%..**************.+XXXX..        ",
"       .XXXXX+.#$$$$$$$$$$$$#..%..**************.+XXXX..        ",
"       .OXXXX+.................=..$************$.+XXXO..        ",
"       .OXXXX+.................%.................+XXXO..        ",
"       .XXXXX+.$*************$.%.................+XXXX..        ",
"       .oXXXo+.***************.%...$$$$$$$$$$$$..+oXXo..        ",
"       .+++++@.$*************$.%...#$$$$$$$$$$#..@++++..        "
};
