/* XPM */
static char *_660c7bdbd92464db2af620180092491lDb1UlNc43NBVNva[] = {
/* columns rows colors chars-per-pixel */
"16 16 133 2 ",
"   c None",
".  c #6E5E6C",
"X  c #745B69",
"o  c #795C6A",
"O  c #7D5E6C",
"+  c #6D6372",
"@  c #736775",
"#  c #756875",
"$  c #786C79",
"%  c #815F6E",
"&  c #80606D",
"*  c #81616E",
"=  c #83616E",
"-  c #85626E",
";  c #86636E",
":  c #84646F",
">  c #88636F",
",  c #846570",
"<  c #856570",
"1  c #866771",
"2  c #896370",
"3  c #8D6772",
"4  c #866872",
"5  c #896872",
"6  c #8D6A73",
"7  c #8E6C75",
"8  c #8F6D76",
"9  c #836D78",
"0  c #906572",
"q  c #916672",
"w  c #946673",
"e  c #9A6975",
"r  c #9B6975",
"t  c #9A6F77",
"y  c #80707C",
"u  c #907077",
"i  c #927279",
"p  c #97767A",
"a  c #91777E",
"s  c #9F7179",
"d  c #9E7279",
"f  c #9B747B",
"g  c #9A757B",
"h  c #9F757B",
"j  c #9C777C",
"k  c #9F787D",
"l  c #9F797D",
"z  c #9D7C7D",
"x  c #9D7D7F",
"c  c #A46D78",
"v  c #A96E7A",
"b  c #A07077",
"n  c #A17077",
"m  c #A0767C",
"M  c #A1787D",
"N  c #A2797E",
"B  c #A37A7E",
"V  c #A27B7E",
"C  c #A4797E",
"Z  c #A87B7F",
"A  c #737380",
"S  c #7C7480",
"D  c #767B87",
"F  c #797C88",
"G  c #787D88",
"H  c #7A7E89",
"J  c #7B7E89",
"K  c #8B7780",
"L  c #8A7882",
"P  c #8C7981",
"I  c #8E7B83",
"U  c #907B83",
"Y  c #997B82",
"T  c #A37C80",
"R  c #A47C80",
"E  c #A47E80",
"W  c #A57F81",
"Q  c #A78482",
"!  c #A98082",
"~  c #A98083",
"^  c #A98183",
"/  c #AF8282",
"(  c #AB8384",
")  c #AD8985",
"_  c #AC8B88",
"`  c #BA8283",
"'  c #BE8081",
"]  c #B28B86",
"[  c #B38F88",
"{  c #B48E89",
"}  c #B78C8A",
"|  c #BC8F8D",
" . c #B5908A",
".. c #B2928D",
"X. c #B4918C",
"o. c #B4928D",
"O. c #BD908D",
"+. c #B39790",
"@. c #B29792",
"#. c #B39B94",
"$. c #B39D96",
"%. c #C08283",
"&. c #C08685",
"*. c #C2928F",
"=. c #CA948D",
"-. c #CB958E",
";. c #CB968F",
":. c #CC978F",
">. c #C5988F",
",. c #C39490",
"<. c #C69A90",
"1. c #C79F95",
"2. c #C8A096",
"3. c #CFA094",
"4. c #D0A396",
"5. c #D2A798",
"6. c #D2A999",
"7. c #D2AE9E",
"8. c #E3AF9E",
"9. c #E4B29F",
"0. c #D3B0A0",
"q. c #ECB6A2",
"w. c #EDB9A4",
"e. c #F6BEA7",
"r. c #F7BFA8",
"t. c #F7C1A9",
"y. c #F7C1AA",
"u. c #F6C2AA",
"i. c #F8C2A9",
"p. c #F9C4AA",
"a. c #F9C4AB",
"s. c #F9C5AB",
"d. c #F9C6AB",
/* pixels */
"      o.{ 6.0. .5.0.7.) o.      ",
"    2.y.&.;.:./ ;.:.;.` y.1.    ",
"    a.' O r r O + 0 0 X %.a.    ",
"  z 3.& s ! ! & @ M E m ; 4.z   ",
"  ..e.$ Y ,.,.! U ,.,.Y y i...  ",
"  +.y.1 u i i 1 L ( ( ! t a.+.  ",
"  Q 8.0 c c c 0 P { { { C 9.Q   ",
"  _ q.M O.O.O.f 9 | O.O.Z w._   ",
"  #.y.: 8 8 8 J J M ( ( s a.#.  ",
"  ] e.& r r r J D E ( ( h i.]   ",
"  z 3.M ,.,.*.J D w r r & 4.z   ",
"  $.y.1 j E E S A l T f 6 a.$.  ",
"  [ r.$ a { { l P { { a y a.[   ",
"  p >.0 v v v % K O.O.O.C <.p   ",
"  +.r.5 i i i 4 # 8 8 8 3 a.+.  ",
"  ; b 1 i i i 1 . > 2 2 o b ;   "
};
