/* XPM */
static char *bbbe0d0f958d49ff8baa02ac5f688a08BrWysf2xBoe224YP[] = {
/* columns rows colors chars-per-pixel */
"16 16 73 1 ",
"  c #6E5967",
". c #87626F",
"X c #8B6371",
"o c #8D6E76",
"O c #946773",
"+ c #976874",
"@ c #9B6975",
"# c #98757B",
"$ c #9B777C",
"% c #9C787D",
"& c #A06B77",
"* c #A06F79",
"= c #AB6F7B",
"- c #A1727A",
"; c #A3747B",
": c #AC707B",
"> c #A17B7F",
", c #A67B7F",
"< c #B2787F",
"1 c #9C7D81",
"2 c #9D7F84",
"3 c #A27C80",
"4 c #A47D81",
"5 c #A97F82",
"6 c #B37A81",
"7 c #B57E83",
"8 c #9E8085",
"9 c #A18286",
"0 c #A68486",
"q c #AA8283",
"w c #AC8083",
"e c #AB8384",
"r c #AC8284",
"t c #A88587",
"y c #AE8586",
"u c #AE8887",
"i c #A48488",
"p c #A7898A",
"a c #A1888D",
"s c #A88A8A",
"d c #AE898B",
"f c #AA8E8D",
"g c #AC8C8D",
"h c #B78084",
"j c #B08B8A",
"k c #B68989",
"l c #B28C8A",
"z c #B18F8E",
"x c #B48C8C",
"c c #B98B8A",
"v c #B98C8A",
"b c #BB8E8C",
"n c #BF8F8D",
"m c #B3918F",
"M c #BA918F",
"N c #BF908D",
"B c #AE8E90",
"V c #AE9496",
"C c #B39190",
"Z c #B79391",
"A c #BA9693",
"S c #BF9491",
"D c #BE9B98",
"F c #BF9C99",
"G c #BF9F9C",
"H c #C1918E",
"J c #C29390",
"K c #C39490",
"L c #C49691",
"P c #C19893",
"I c #C59893",
"U c #C19996",
"Y c #C09C99",
/* pixels */
"Vssgs008issgs00a",
"AKKKKJJrnKKKJJJ0",
"fyr34jjqdyr$rjj0",
"DLKkkKKKKKK4HKKU",
"Bdmdeyy3qjCyyyyi",
"AKKKKHJ3bKKKKHN1",
"p5e$>yde55q%edms",
"FKLkkh:+O=6yHKKU",
"Bdjyy;X  .*eyqq2",
"ZKKKK7=@&=<KKKKt",
"fy5%>5----,$edds",
"FLIckKKKKJJ#HKKU",
"fuzdeyy>4dmyyyy9",
"ZHHHHNN>vHHHHnM1",
"fqy#3jZjywyoylZg",
"GKKMxSSKKKPdKSSY"
};
