/* XPM */
static char *_21788274b9748dcb6b22ae8a7eedbb23x43wiPm3D7aBYlM[] = {
/* columns rows colors chars-per-pixel */
"64 64 115 2 ",
"   c #C39490",
".  c #8E8B8D",
"X  c #C0BDBF",
"o  c #7D7B7C",
"O  c #B3B1B2",
"+  c #BCB9BB",
"@  c #9A9899",
"#  c #969495",
"$  c #B7B5B7",
"%  c #928F91",
"&  c white",
"*  c #8D6471",
"=  c #98767B",
"-  c #9D8183",
";  c #9F8586",
":  c #9E8284",
">  c #97757A",
",  c #775C6A",
"<  c #BE8D8C",
"1  c #C39490",
"2  c #C49892",
"3  c #C59993",
"4  c #C59893",
"5  c #C2938F",
"6  c #876972",
"7  c #C39490",
"8  c #C08F8D",
"9  c #BD8B8A",
"0  c #AD707B",
"q  c #6E5967",
"w  c #CDA99F",
"e  c #D1B1A5",
"r  c #C2928F",
"t  c #84646F",
"y  c #886B73",
"u  c #C1918E",
"i  c #81606D",
"p  c #CFADA2",
"a  c #C1928E",
"s  c #82616E",
"d  c #AF747D",
"f  c #C49792",
"g  c #C69A94",
"h  c #B98486",
"j  c #CEABA1",
"k  c #755B69",
"l  c #78606C",
"z  c #79616C",
"x  c #7A646E",
"c  c #7B6771",
"v  c #78606B",
"b  c #705967",
"n  c #B88285",
"m  c #C39591",
"M  c #CAA29A",
"N  c #CFAFA7",
"B  c #856570",
"V  c #B67F84",
"C  c #C9A099",
"Z  c #A56D78",
"A  c #B88C8A",
"S  c #B78A89",
"D  c #7F5F6C",
"F  c #99787C",
"G  c #9A7A7E",
"H  c #A28C8D",
"J  c #A59192",
"K  c #9F8485",
"L  c #C39590",
"P  c #C69C96",
"I  c #C79E98",
"U  c #B1767E",
"Y  c #B77F83",
"T  c #B2787F",
"R  c #BA8486",
"E  c #B27980",
"W  c #926475",
"Q  c #956575",
"!  c #AF737D",
"~  c #725A68",
"^  c #CCA79D",
"/  c #CCA89E",
"(  c #9F6A78",
")  c #B88184",
"_  c #805E6E",
"`  c #A76D79",
"'  c #A16B77",
"]  c #9F6B76",
"[  c #775B6A",
"{  c #8B6172",
"}  c #CAA49D",
"|  c #B28787",
" . c #AB6F7A",
".. c #795C6B",
"X. c #775E6A",
"o. c #775D6A",
"O. c #BE8C8B",
"+. c #B2777F",
"@. c #BD8989",
"#. c #BF8E8C",
"$. c #7D646E",
"%. c #725C69",
"&. c #C0908D",
"*. c #C69B95",
"=. c #DCCABE",
"-. c #C79D96",
";. c #D4B9AE",
":. c #D8C3B8",
">. c #BA8587",
",. c #7B626D",
"<. c #BC898A",
"1. c #CBA69D",
"2. c #BEA099",
"3. c #80626E",
"4. c #C79D97",
/* pixels */
"1 1 < 1 1 1 1 2 3 3 3 3 4 1 1 3 1 1 1 1 1 1 1 1 1 1 1 1 1 1 1 5 6 6 < 1 1 1 1 3 3 3 3 1 1 1 3 1 1 1 1 1 1 1 1 1 1 1 1 1 1 1 1 5 ",
"1 1 < 1 1 1 1 2 3 3 3 3 4 1 1 3 1 1 1 1 1 1 1 1 1 1 1 1 1 1 1 5 6 6 < 1 1 1 1 3 3 3 3 1 1 1 3 1 1 1 1 1 1 1 1 1 1 1 1 1 1 1 1 5 ",
"1 1 < 1 1 1 1 2 3 3 3 3 4 1 1 3 1 1 1 1 1 1 1 1 1 1 1 1 1 1 1 5 6 6 < 1 1 1 1 3 3 3 3 1 1 1 3 1 1 1 1 1 1 1 1 1 1 1 1 1 1 1 1 5 ",
"1 1 1 1 1 1 1 1 1 1 1 1 1 1 1 1 1 1 1 1 1 8 8 9 0 0 0 0 1 1 1 q q q 1 1 1 1 1 1 1 1 1 1 1 1 1 1 1 1 1 1 0 0 1 1 0 0 0 0 1 1 1 q ",
"1 1 1 1 1 1 1 1 1 1 1 1 1 1 1 1 1 1 1 1 1 1 1 w 1 e e 1 1 1 1 r t t 1 1 1 1 1 1 1 1 1 1 1 1 1 1 1 1 1 1 1 1 e e 1 e e 1 1 1 1 r ",
"1 1 1 1 1 1 1 1 1 1 1 1 1 1 1 1 1 1 1 1 1 1 1 w 1 e e 1 1 1 1 r t t 1 1 1 1 1 1 1 1 1 1 1 1 1 1 1 1 1 1 1 1 e e 1 e e 1 1 1 1 r ",
"1 1 1 1 1 1 1 1 1 1 1 1 1 1 1 1 1 1 1 1 1 1 1 1 1 1 1 1 1 1 1 1 y y 1 1 1 1 1 1 1 1 1 1 1 1 1 1 1 1 1 1 1 1 1 1 1 1 1 1 1 1 1 1 ",
"1 1 1 1 1 1 1 1 1 1 1 1 1 1 1 1 1 1 1 1 1 1 1 1 1 1 1 1 1 1 1 1 y y 1 1 1 1 1 1 1 1 1 1 1 1 1 1 1 1 1 1 1 1 1 1 1 1 1 1 1 1 1 1 ",
"1 1 0 1 1 1 1 1 1 1 1 1 1 1 1 1 1 1 1 1 1 1 1 1 1 1 1 1 1 1 1 u i i 0 1 1 1 1 1 1 1 1 1 1 1 1 1 1 1 1 1 1 1 1 1 1 1 1 1 1 1 1 u ",
"1 1 0 1 1 1 1 1 1 1 1 1 1 1 1 1 1 1 1 1 1 1 1 1 1 1 1 1 1 1 1 u i i 0 1 1 1 1 1 1 1 1 1 1 1 1 1 1 1 1 1 1 1 1 1 1 1 1 1 1 1 1 u ",
"1 1 q q q q q q q q q q q q q q q q q q q q q q q q q q q q q q q q q q q q q q q q q q q q q q q q q q q q q q q q q q q q q q ",
"1 1 p p p 1 1 1 1 1 1 1 1 1 1 1 a s d 1 1 f f g p p p p 1 1 1 1 1 1 p p p 1 1 1 1 1 1 1 1 1 1 a s d 1 1 p p 1 1 p p p p 1 1 1 1 ",
"1 1 1 1 1 1 1 1 1 0 0 0 < 1 1 1 q q 1 1 1 1 1 1 1 1 1 1 1 1 1 1 1 1 1 1 1 1 1 1 1 0 h 0 1 1 1 q q 1 1 1 1 1 1 1 1 1 1 1 1 1 1 1 ",
"1 1 1 1 1 1 1 1 e 1 e e j 1 1 1 r t 1 1 1 1 1 1 1 1 1 1 1 1 1 1 1 1 1 1 1 1 1 1 e 1 e 1 1 1 1 r t 1 1 1 1 1 1 1 1 1 1 1 1 1 1 1 ",
"1 1 1 1 1 1 1 1 1 1 1 1 1 1 1 1 1 y 1 1 1 1 1 1 1 1 1 1 1 1 1 1 1 1 1 1 1 1 1 1 1 1 1 1 1 1 1 1 y 1 1 1 1 1 1 1 1 1 1 1 1 1 1 1 ",
"1 1 1 1 1 1 1 1 1 1 1 1 1 1 1 1 1 y 1 1 1 1 1 1 1 1 1 1 1 1 1 1 1 1 1 1 1 1 1 1 1 1 1 1 1 1 1 1 y 1 1 1 1 1 1 1 1 1 1 1 1 1 1 1 ",
"1 1 1 1 1 1 1 1 1 1 1 1 1 1 1 1 u i 0 1 1 1 1 1 1 1 1 1 1 1 1 1 1 1 1 1 1 1 1 1 1 1 1 1 1 1 1 u i 0 1 1 1 1 1 1 1 1 1 1 1 1 1 1 ",
"1 1 1 1 1 1 1 1 1 1 1 1 1 1 1 1 u i 0 1 1 1 1 1 1 1 1 1 1 1 1 1 1 1 1 1 1 1 1 1 1 1 1 1 1 1 1 u i 0 1 1 1 1 1 1 1 1 1 1 1 1 1 1 ",
"1 1 k l l l l z x x c c c x x l x z l l l l l l l l l l l l l v b b k l l l l l x x c c x x l x z l l l l l l l l l l l l l l v ",
"1 1 n 1 1 m m f M M N N N M M 1 M 4 1 1 1 1 1 1 1 1 1 1 1 1 1 r B B n 1 1 m m 1 M M N N M M 1 M 4 1 1 1 1 1 1 1 1 1 1 1 1 1 1 r ",
"1 1 1 1 1 1 1 1 1 1 1 1 1 1 1 1 1 1 1 1 1 1 1 1 1 1 1 1 1 1 1 1 y y 1 1 1 1 1 1 1 1 1 1 1 1 1 1 1 1 1 1 1 1 1 1 1 1 1 1 1 1 1 1 ",
"1 1 1 1 1 1 1 1 1 1 1 1 1 1 1 1 1 1 1 1 1 1 1 1 1 1 1 1 1 1 1 r t t 1 1 1 1 1 1 1 1 1 1 1 1 1 1 1 1 1 1 1 1 1 1 1 1 1 1 1 1 1 r ",
"1 1 1 1 1 1 1 1 1 1 1 1 1 1 1 1 1 1 1 1 1 1 1 1 0 0 V 1 q q q q q q 1 1 1 1 1 1 1 1 1 1 1 1 1 1 1 1 1 1 1 1 1 1 0 0 V 1 q q q q ",
"1 1 1 1 1 1 1 1 1 1 1 1 1 1 1 1 1 1 1 1 1 1 1 1 1 1 C e e e 1 1 y y 1 1 1 1 1 1 1 1 1 1 1 1 1 1 1 1 1 1 1 1 1 1 1 1 C e e e 1 1 ",
"1 1 Z A A A A A A A A A A A A A A A A A A A A A A A A A A A A S D D Z A A A A A A A A A A A A A A A A A A A A A A A A A A A A S ",
"1 1 = = = = = = = = = = = = = = > , * = = F F G ; ; H J J J ; K = = = = = = = = = = = = = = = > , * = = ; ; = = ; ; H J J J ; K ",
"1 1 = = = = = = = = = = = = = = > , * = = F F G ; ; H J J J ; K = = = = = = = = = = = = = = = > , * = = ; ; = = ; ; H J J J ; K ",
"1 1 1 1 1 1 1 1 1 1 1 1 1 1 1 1 5 6 < 1 1 1 1 L 3 3 P I I I 3 3 1 1 1 1 1 1 1 1 1 1 1 1 1 1 1 5 6 < 1 1 3 3 1 1 3 3 P I I I 3 3 ",
"1 1 1 1 1 1 1 1 1 1 1 1 1 1 1 1 5 6 < 1 1 1 1 L 3 3 P I I I 3 3 1 1 1 1 1 1 1 1 1 1 1 1 1 1 1 5 6 < 1 1 3 3 1 1 3 3 P I I I 3 3 ",
"1 1 1 1 1 8 8 0 0 1 1 1 U 1 1 q q q 1 1 1 1 1 1 Y 0 0 0 0 0 0 0 0 0 0 0 0 0 0 0 0 0 T 1 1 1 1 1 y 1 1 1 1 1 1 1 1 1 1 1 1 1 1 1 ",
"1 1 1 1 1 1 1 w 1 1 1 1 e 1 1 e r t 1 1 1 1 1 R 0 0 0 0 0 0 0 0 0 0 0 0 0 0 0 0 0 0 0 Y 1 1 1 1 y 1 1 1 1 1 1 1 1 1 1 1 1 1 1 1 ",
"1 1 1 1 1 1 1 1 1 1 1 1 1 1 1 1 1 y 1 1 1 1 1 E 0 0 0 0 0 0 0 0 0 0 0 0 0 0 0 0 0 0 0 0 1 1 1 1 y 1 1 1 1 1 1 1 1 1 1 1 1 1 1 1 ",
"1 1 1 1 1 1 1 1 1 1 1 1 1 1 1 1 1 y 1 1 1 1 1 E 0 0 0 0 0 0 W q q q q q q Q Q 0 0 0 0 0 1 1 1 1 y 1 1 1 1 1 1 1 1 1 1 1 1 1 1 1 ",
"1 1 1 1 1 1 1 1 1 1 1 1 1 1 1 1 u i 0 1 1 u u ! 0 0 0 0 W W q q q q q q q ~ ~ 0 0 0 0 0 Y Y 1 u i 0 1 1 1 1 1 1 1 1 1 1 1 1 1 1 ",
"1 1 q q q q q q q q q q q q q q q q q q q q q q q q q q q q q q q q q q q q q q q q q q q q q q q q q q q q q q q q q q q q q q ",
"1 1 d 1 1 1 1 ^ p p p p / 1 1 p 1 1 1 1 1 u u d 0 0 ( q q q q q q q q q q q q q Q 0 0 0 ) ) 1 1 1 1 1 1 1 1 1 1 1 1 1 1 1 1 1 a ",
"1 1 1 1 1 1 1 1 1 1 1 1 1 1 1 1 1 1 1 1 1 1 1 E 0 0 0 _ q q q q q q q q q q q _ 0 0 0 0 1 1 1 1 1 1 1 1 n n 1 1 n n n n 1 1 1 = ",
"1 1 1 1 1 1 1 1 1 1 1 1 1 1 1 1 1 1 1 1 1 1 1 E 0 0 0 ` ' ' ' ] [ [ { ' ' ' ' ` 0 0 0 0 1 1 1 1 1 1 1 1 < < j j < } } < 1 1 1 | ",
"1 1 1 1 1 1 1 1 1 1 1 1 1 1 1 1 1 1 1 1 1 1 1 E 0 0 0 0 0 0 0 0 i i 0 0 0 0 0 0 0 0 0 0 1 1 1 1 1 1 1 1 1 1 1 1 1 1 1 1 1 1 1 1 ",
"1 1 1 1 1 1 1 1 1 1 1 1 1 1 1 1 1 1 1 1 1 1 1 E 0 0 0 0 0 0 0 0 i i 0 0 0 0 0 0 0 0 0 0 1 1 1 1 1 1 1 1 1 1 1 1 1 1 1 1 1 1 1 1 ",
"1 1 1 1 1 1 1 1 1 1 1 1 1 1 1 1 1 1 1 1 1 1 1 E 0 0 0 0 0 0 0 0 i i 0 0 0 0 0 0 0 0 0 0 1 1 1 1 1 1 1 1 1 1 1 1 1 1 1 1 1 1 1 1 ",
"1 1 0 1 1 1 1 1 1 1 1 1 1 1 1 1 1 1 1 1 1 u u ! 0 0 0 0 0 0 0  .....W 0 0 0 0 0 0 0 0 0 Y Y 1 1 1 1 1 1 1 1 1 1 1 1 1 1 1 1 1 u ",
"1 1 0 1 1 1 1 1 1 1 1 1 1 1 1 1 1 1 1 1 1 u u ! 0 0 0 0 0 0 0  .....W 0 0 0 0 0 0 0 0 0 Y Y 1 1 1 1 1 1 1 1 1 1 1 1 1 1 1 1 1 u ",
"1 1 x x x l l l l l l l l l l l v b k l l l l X.k k k k k k k k k k k k k k k k k k k o.l l l v b k l l x x l l x x x x l l l l ",
"1 1 M M M 1 1 1 1 1 1 1 1 1 1 1 r B n 1 1 1 1 O.+.0 0 0 0 0 0 0 0 0 0 0 0 0 0 0 0 0 d @.1 1 1 r B n 1 1 M M 1 1 M M M M 1 1 1 1 ",
"1 1 1 1 1 1 1 1 1 U U U #.1 1 1 $.%.1 1 1 1 1 1 &.< < < < < < < < < < < < < < < < < #.1 1 1 1 1 y 1 1 1 1 1 1 1 1 1 1 1 1 1 1 1 ",
"1 1 1 1 1 1 1 1 e 1 e e j 1 1 1 r t 1 1 1 1 1 1 1 1 1 1 1 1 1 1 1 1 1 1 1 1 1 1 1 0 h 0 1 1 q q q 1 1 1 1 1 1 1 1 1 1 1 1 1 1 1 ",
"1 1 1 1 1 1 1 1 1 1 1 1 1 1 1 1 1 y 1 1 1 1 1 1 1 1 1 1 1 1 1 1 1 1 1 1 1 1 1 1 e 1 e 1 1 1 1 r t 1 1 1 1 1 1 1 1 1 1 1 1 1 1 1 ",
"1 1 1 1 1 1 1 1 1 1 1 1 1 1 1 1 1 y 1 1 1 1 1 1 1 1 1 1 1 1 1 1 1 1 1 1 1 1 1 1 1 1 1 1 1 1 1 1 y 1 1 1 1 1 1 1 1 1 1 1 1 1 1 1 ",
"1 1 1 1 1 1 1 1 1 1 1 1 1 1 1 1 u i 0 1 1 1 1 1 1 1 1 1 1 1 1 1 1 1 1 1 1 1 1 1 1 1 1 1 1 1 1 u i 0 1 1 1 1 1 1 1 1 1 1 1 1 1 1 ",
"1 1 1 1 1 1 1 1 1 1 1 1 1 1 1 1 u i 0 1 1 1 1 1 1 1 1 1 1 1 1 1 1 1 1 1 1 1 1 1 1 1 1 1 1 1 1 u i 0 1 1 1 1 1 1 1 1 1 1 1 1 1 1 ",
"1 1 q q q q q q q q q q q q q q q q q q q q q q q q q q q q q q q q q q q q q q q q q q q q q q q q q q q q q q q q q q q q q q ",
"1 1 0 1 1 f f *.e e =.=.=.e e 1 e -.1 1 1 1 1 1 1 1 1 1 1 1 1 u i i 0 1 1 f f 1 e e =.=.e e 1 e -.1 1 1 1 1 1 1 1 1 1 1 1 1 1 u ",
"1 1 1 1 1 1 1 1 1 1 1 1 1 1 1 1 1 1 1 1 1 1 1 1 1 1 1 1 1 1 1 1 y y 1 1 1 1 1 1 1 1 1 1 1 1 1 1 1 1 1 1 1 1 1 1 1 1 1 1 1 1 1 1 ",
"1 1 1 1 1 1 1 1 1 1 1 1 1 1 1 1 1 1 1 1 1 1 1 1 1 1 1 1 1 1 1 r t t 1 1 1 1 1 1 1 1 1 1 1 1 1 1 1 1 1 1 1 1 1 1 1 1 1 1 1 1 1 r ",
"1 1 1 1 1 1 1 1 1 1 1 1 1 1 1 1 1 1 1 1 1 1 1 1 0 0 V 1 q q q q q q 1 1 1 1 1 1 1 1 1 1 1 1 1 1 1 1 1 1 1 1 1 1 0 0 V 1 q q q q ",
"1 1 1 1 1 1 1 1 1 1 1 1 1 1 1 1 1 1 1 1 1 1 1 1 1 1 C e e e 1 1 y y 1 1 1 1 1 1 1 1 1 1 1 1 1 1 1 1 1 1 1 1 1 1 1 1 C e e e 1 1 ",
"1 1 0 1 1 1 1 1 1 1 1 1 1 1 1 1 1 1 1 1 1 1 1 1 1 1 1 1 1 1 1 u i i 0 1 1 1 1 1 1 1 1 1 1 1 1 1 1 1 1 1 1 1 1 1 1 1 1 1 1 1 1 u ",
"1 1 q q q q q q q q q q q q q q q q q q q q q q q q q q q q q q q q q q q q q q q q q q q q q q q q q q q q q q q q q q q q q q ",
"1 1 q q q q q q q q q q q q q q q q q q q q q q q q q q q q q q q q q q q q q q q q q q q q q q q q q q q q q q q q q q q q q q ",
"1 1 1 1 1 1 1 1 1 1 1 1 1 1 1 1 a s d 1 1 f f g p p ;.:.:.:.p j 1 1 1 1 1 1 1 1 1 1 1 1 1 1 1 a s d 1 1 p p 1 1 p p ;.:.:.:.p j ",
"1 1 1 1 1 u u n n 1 1 1 >.1 1 = = ,.1 1 1 1 1 1 1 1 1 1 1 1 1 1 1 1 1 1 1 u u n n 1 <.1 1 1 = = ,.1 1 1 1 1 1 1 1 1 1 1 1 1 1 1 ",
"1 1 1 1 1 u u n n 1 1 1 >.1 1 = = ,.1 1 1 1 1 1 1 1 1 1 1 1 1 1 1 1 1 1 1 u u n n 1 <.1 1 1 = = ,.1 1 1 1 1 1 1 1 1 1 1 1 1 1 1 ",
"1 1 1 1 1 5 5 I < 1 1 1 1.1 1 2.| 3.1 1 1 1 1 1 1 1 1 1 1 1 1 1 1 1 1 1 1 5 5 } < 1 4.j 1 1 2.| 3.1 1 1 1 1 1 1 1 1 1 1 1 1 1 1 "
};
