/* XPM */
static char *_d0bb60826834bffbed9744d82331051nmSqmqLxPDsm0Gmu[] = {
/* columns rows colors chars-per-pixel */
"64 64 161 2 ",
"   c #808080",
".  c #8E8B8D",
"X  c #C0BDBF",
"o  c #7D7B7C",
"O  c #B3B1B2",
"+  c #BCB9BB",
"@  c #9A9899",
"#  c #969495",
"$  c #B7B5B7",
"%  c #928F91",
"&  c white",
"*  c #8D6471",
"=  c #98767B",
"-  c #9D8183",
";  c #9F8586",
":  c #9E8284",
">  c #97757A",
",  c #775C6A",
"<  c #BE8D8C",
"1  c #C39490",
"2  c #C49892",
"3  c #C59993",
"4  c #C59893",
"5  c #C2938F",
"6  c #876972",
"7  c gray80",
"8  c #C08F8D",
"9  c #BD8B8A",
"0  c #AD707B",
"q  c #6E5967",
"w  c #CDA99F",
"e  c #D1B1A5",
"r  c #C2928F",
"t  c #84646F",
"y  c #886B73",
"u  c #C1918E",
"i  c #81606D",
"p  c #CFADA2",
"a  c #C1928E",
"s  c #82616E",
"d  c #AF747D",
"f  c #C49792",
"g  c #C69A94",
"h  c #B98486",
"j  c #CEABA1",
"k  c #C9957F",
"l  c #704634",
"z  c #AB765E",
"x  c #9E6451",
"c  c #755B69",
"v  c #78606C",
"b  c #79616C",
"n  c #7A646E",
"m  c #7B6771",
"M  c #78606B",
"N  c #B88285",
"B  c #C39591",
"V  c #CAA29A",
"C  c #CFAFA7",
"Z  c #B67F84",
"A  c #C9A099",
"S  c #A56D78",
"D  c #B88C8A",
"F  c #AB4343",
"G  c #8F3232",
"H  c #D6EBFF",
"J  c #368899",
"K  c #D9A066",
"L  c #B78A89",
"P  c #99787C",
"I  c #9A7A7E",
"U  c #847E87",
"Y  c #EEC39A",
"T  c #A28C8D",
"R  c #A59192",
"E  c #9F8485",
"W  c #C39590",
"Q  c #6B6970",
"!  c #595652",
"~  c #804D36",
"^  c #D95763",
"/  c #C69C96",
"(  c #C79E98",
")  c #B1767E",
"_  c #B2787F",
"`  c #CBDBFC",
"'  c #9BADB7",
"]  c #8F563B",
"[  c #555459",
"{  c #956575",
"}  c #725A68",
"|  c #B77F83",
" . c #CCA79D",
".. c #CCA89E",
"X. c #B88184",
"o. c #52401E",
"O. c #805E6E",
"+. c #B39932",
"@. c #3A4643",
"#. c #2F3936",
"$. c #2E3936",
"%. c #A16B77",
"&. c #A76D79",
"*. c #CAA49D",
"=. c #B28787",
"-. c #EBC659",
";. c #A5AEEA",
":. c #85909F",
">. c #394744",
",. c #3B4542",
"<. c #313B38",
"1. c #303A37",
"2. c #323C39",
"3. c #343E3B",
"4. c #2E3835",
"5. c #333E3B",
"6. c #2D3835",
"7. c #C2C8F0",
"8. c #AB6F7A",
"9. c #795C6B",
"0. c #804E37",
"q. c #705967",
"w. c #7F4E37",
"e. c #303B38",
"r. c #323D3A",
"t. c #60422C",
"y. c #7E4F38",
"u. c #7D5039",
"i. c #7C513A",
"p. c #775D6A",
"a. c #856570",
"s. c #804F38",
"d. c #333D3A",
"f. c #61422C",
"g. c #7F4F38",
"h. c #7E5039",
"j. c #7D513A",
"k. c #BD8989",
"l. c #7D646E",
"z. c #725C69",
"x. c #8F6049",
"c. c #61432D",
"v. c #7E513A",
"b. c #BF8E8C",
"n. c #905F48",
"m. c #7F5039",
"M. c #62422C",
"N. c #814E37",
"B. c #61412B",
"V. c #C69B95",
"C. c #DCCABE",
"Z. c #C79D96",
"A. c #D4B9AE",
"S. c #D8C3B8",
"D. c #BA8587",
"F. c #7B626D",
"G. c #BC898A",
"H. c #CBA69D",
"J. c #BEA099",
"K. c #80626E",
"L. c #C79D97",
/* pixels */
"1 1 < 1 1 1 1 2 3 3 3 3 4 1 1 3 1 1 1 1 1 1 1 1 1 1 1 1 1 1 1 5 6 6 < 1 1 1 1 3 3 3 3 1 1 1 3 1 1 1 1 1 1 1 1 1 1 1 1 1 1 1 1 5 ",
"1 1 < 1 1 1 1 2 3 3 3 3 4 1 1 3 1 1 1 1 1 1 1 1 1 1 1 1 1 1 1 5 6 6 < 1 1 1 1 3 3 3 3 1 1 1 3 1 1 1 1 1 1 1 1 1 1 1 1 1 1 1 1 5 ",
"1 1 < 1 1 1 1 2 3 3 3 3 4 1 1 3 1 1 1 1 1 1 1 1 1 1 1 1 1 1 1 5 6 6 < 1 1 1 1 3 3 3 3 1 1 1 3 1 1 1 1 1 1 1 1 1 1 1 1 1 1 1 1 5 ",
"1 1 1 1 1 1 1 1 1 1 1 1 1 1 1 1 1 1 1 1 1 8 8 9 0 0 0 0 1 1 1 q q q 1 1 1 1 1 1 1 1 1 1 1 1 1 1 1 1 1 1 0 0 1 1 0 0 0 0 1 1 1 q ",
"1 1 1 1 1 1 1 1 1 1 1 1 1 1 1 1 1 1 1 1 1 1 1 w 1 e e 1 1 1 1 r t t 1 1 1 1 1 1 1 1 1 1 1 1 1 1 1 1 1 1 1 1 e e 1 e e 1 1 1 1 r ",
"1 1 1 1 1 1 1 1 1 1 1 1 1 1 1 1 1 1 1 1 1 1 1 w 1 e e 1 1 1 1 r t t 1 1 1 1 1 1 1 1 1 1 1 1 1 1 1 1 1 1 1 1 e e 1 e e 1 1 1 1 r ",
"1 1 1 1 1 1 1 1 1 1 1 1 1 1 1 1 1 1 1 1 1 1 1 1 1 1 1 1 1 1 1 1 y y 1 1 1 1 1 1 1 1 1 1 1 1 1 1 1 1 1 1 1 1 1 1 1 1 1 1 1 1 1 1 ",
"1 1 1 1 1 1 1 1 1 1 1 1 1 1 1 1 1 1 1 1 1 1 1 1 1 1 1 1 1 1 1 1 y y 1 1 1 1 1 1 1 1 1 1 1 1 1 1 1 1 1 1 1 1 1 1 1 1 1 1 1 1 1 1 ",
"1 1 0 1 1 1 1 1 1 1 1 1 1 1 1 1 1 1 1 1 1 1 1 1 1 1 1 1 1 1 1 u i i 0 1 1 1 1 1 1 1 1 1 1 1 1 1 1 1 1 1 1 1 1 1 1 1 1 1 1 1 1 u ",
"1 1 0 1 1 1 1 1 1 1 1 1 1 1 1 1 1 1 1 1 1 1 1 1 1 1 1 1 1 1 1 u i i 0 1 1 1 1 1 1 1 1 1 1 1 1 1 1 1 1 1 1 1 1 1 1 1 1 1 1 1 1 u ",
"1 1 q q q q q q q q q q q q q q q q q q q q q q q q q q q q q q q q q q q q q q q q q q q q q q q q q q q q q q q q q q q q q q ",
"1 1 p p p 1 1 1 1 1 1 1 1 1 1 1 a s d 1 1 f f g p p p p 1 1 1 1 1 1 p p p 1 1 1 1 1 1 1 1 1 1 a s d 1 1 p p 1 1 p p p p 1 1 1 1 ",
"1 1 1 1 1 1 1 1 1 0 0 0 < 1 1 1 q q 1 1 1 1 1 1 1 1 1 1 1 1 1 1 1 1 1 1 1 1 1 1 1 0 h 0 1 1 1 q q 1 1 1 1 1 1 1 1 1 1 1 1 1 1 1 ",
"1 1 1 1 1 1 1 1 e 1 e e j 1 1 1 r t 1 1 1 1 1 1 1 1 1 1 1 1 1 1 1 1 1 1 1 1 1 1 e 1 e 1 1 1 1 r t 1 1 1 1 1 1 1 1 1 1 1 1 1 1 1 ",
"1 1 1 1 1 1 1 1 1 1 1 1 1 1 1 1 1 y 1 1 1 1 1 1 1 1 1 1 1 1 1 k k k k k 1 1 1 1 1 1 1 1 1 1 1 1 y 1 1 1 1 1 1 1 1 1 1 1 1 1 1 1 ",
"1 1 1 1 1 1 1 1 1 1 1 1 1 1 1 1 1 y 1 1 1 1 1 1 1 1 1 1 1 1 1 k k k k k 1 1 1 1 1 1 1 1 1 1 1 1 y 1 1 1 1 1 1 1 1 1 1 1 1 1 1 1 ",
"1 1 1 1 1 1 1 1 1 1 1 1 1 1 1 1 u i 0 1 1 1 1 1 1 1 1 1 1 1 1 l z z z x k k 1 1 1 1 1 1 1 1 1 u i 0 1 1 1 1 1 1 1 1 1 1 1 1 1 1 ",
"1 1 1 1 1 1 1 1 1 1 1 1 1 1 1 1 u i 0 1 1 1 1 1 1 1 1 1 1 l l x l z z z x z z z 1 1 1 1 1 1 1 u i 0 1 1 1 1 1 1 1 1 1 1 1 1 1 1 ",
"1 1 c v v v v b n n m m m n n v n b v v v v v v v v v v v l l x l z z z x z z z n n m m n n v n b v v v v v v v v v v v v v v M ",
"1 1 N 1 1 B B f V V C C C V V 1 V 4 1 1 1 1 1 1 1 1 1 1 1 x x x x x x z x x z z V V C C V V 1 V 4 1 1 1 1 1 1 1 1 1 1 1 1 1 1 r ",
"1 1 1 1 1 1 1 1 1 1 1 1 1 1 1 1 1 1 1 1 1 1 1 1 1 1 1 1 1 l l x x l l l x l z z 1 1 1 1 1 1 1 1 1 1 1 1 1 1 1 1 1 1 1 1 1 1 1 1 ",
"1 1 1 1 1 1 1 1 1 1 1 1 1 1 1 1 1 1 1 1 1 1 1 1 1 1 1 1 1 l l x x l l l x l z z 1 1 1 1 1 1 1 1 1 1 1 1 1 1 1 1 1 1 1 1 1 1 1 r ",
"1 1 1 1 1 1 1 1 1 1 1 1 1 1 1 1 1 1 1 1 1 1 1 1 0 0 Z 1 q l l x x l l l x l z z 1 1 1 1 1 1 1 1 1 1 1 1 1 1 1 1 0 0 Z 1 q q q q ",
"1 1 1 1 1 1 1 1 1 1 1 1 1 1 1 1 1 1 1 1 1 1 1 1 1 1 A e e l l x x l l l x l z z 1 1 1 1 1 1 1 1 1 1 1 1 1 1 1 1 1 1 A e e e 1 1 ",
"1 1 S D D D D D D D D D D D D D D D D D D D D D D D D F F G G l z H H J K J l l D D D D D D D D D D D D D D D D D D D D D D D L ",
"1 1 = = = = = = = = = = = = = = > , * = = P P I ; ; U U F G G l l Y Y Y Y Y U U = = = = = = = > , * = = ; ; = = ; ; T R R R ; E ",
"1 1 = = = = = = = = = = = = = = > , * = = P P I ; ; U U F G G l l Y Y Y Y Y U U = = = = = = = > , * = = ; ; = = ; ; T R R R ; E ",
"1 1 1 1 1 1 1 1 1 1 1 1 1 1 1 1 5 6 < 1 1 1 1 W U U Q ! ~ U U G ^ ^ ^ K K F ^ ^ U 1 1 1 1 1 1 5 6 < 1 1 3 3 1 1 3 3 / ( ( ( 3 3 ",
"1 1 1 1 1 1 1 1 1 1 1 1 1 1 1 1 5 6 < 1 1 1 U U Q Q Q ! U ~ ~ F G G G ^ ^ G Q Q Q U 1 1 1 1 1 5 6 < 1 1 3 3 1 1 3 3 / ( ( ( 3 3 ",
"1 1 1 1 1 8 8 0 0 1 1 1 ) 1 1 q q q 1 1 1 1 U U Q Q Q ! U ~ ~ F G G G ^ ^ G Q Q Q U _ 1 1 1 1 1 y 1 1 1 1 1 1 1 1 1 1 1 1 1 1 1 ",
"1 1 1 1 1 1 1 w 1 1 1 1 e 1 1 e r t 1 ` ` ` U ! ! ! F G ' ' ' ~ F G G G G G ! ! ` ` ` ` 1 1 1 1 y 1 1 1 1 1 1 1 1 1 1 1 1 1 1 1 ",
"1 1 1 1 1 1 1 1 1 1 1 1 1 1 1 1 1 y 1 ` ' ' ! G F F F 0 ~ ] ] ] ~ [ [ F F 0 0 0 ' ` ' ' 1 1 1 1 y 1 1 1 1 1 1 1 1 1 1 1 1 1 1 1 ",
"1 1 1 1 1 1 1 1 1 1 1 1 1 1 1 1 1 y 1 ` ' ' ! G F F F 0 ~ ] ] ] ~ [ [ F F { { 0 ' ` ' ' 1 1 1 1 y 1 1 1 1 1 1 1 1 1 1 1 1 1 1 1 ",
"1 1 1 1 1 1 1 1 1 1 1 1 1 1 1 1 u i 0 ` Q Q ! G F F G ~ ] ~ ~ U U [ [ ~ ' } } 0 ' ' ' ' | | 1 u i 0 1 1 1 1 1 1 1 1 1 1 1 1 1 1 ",
"1 1 q q q q q q q q q q q q q q q q q ` Q Q ! G F F G ~ ] ~ ~ U U [ [ ~ ' q q q ' ' ' ' q q q q q q q q q q q q q q q q q q q q ",
"1 1 d 1 1 1 1  .p p p p ..1 1 p 1 1 1 ` Q Q ! G F F G ~ ] ~ ~ U U [ [ ~ ' q q q ' ' ' ' X.X.1 1 1 1 1 1 1 1 1 1 1 1 1 1 1 1 1 a ",
"1 1 1 1 1 1 1 1 1 1 1 1 1 1 1 1 1 1 1 ' Q Q o.F G G G ] ~ [ [ [ Q Q Q Q q q q O.! ! ! ! 1 1 1 1 1 1 1 1 N N 1 1 N N N N 1 1 1 = ",
"1 1 1 1 1 1 1 1 1 1 1 1 1 1 1 1 1 +.+.! ! ! G F G G G @.#.#.#.#.$.$.#.@.@.%.%.&.0 0 0 0 1 1 1 1 1 1 1 1 < < j j < *.*.< 1 1 1 =.",
"1 1 1 1 1 1 1 1 1 1 1 1 1 1 1 1 1 +.+.! ! ! G F G G G @.#.#.#.#.#.#.#.@.@.0 0 0 0 0 0 0 1 1 1 1 1 1 1 1 1 1 1 1 1 1 1 1 1 1 1 1 ",
"1 1 1 1 1 1 1 1 1 1 1 1 1 1 1 -.-.;.:.+.F F G G G G >.,.<.#.#.#.#.1.1.#.@.@.0 0 0 0 0 0 1 1 1 1 1 1 1 1 1 1 1 1 1 1 1 1 1 1 1 1 ",
"1 1 1 1 1 1 1 1 1 1 1 1 1 1 1 ;.;.:.;.F G G G G G G @.<.<.2.2.3.3.4.4.1.,.@.>.>.0 0 0 0 1 1 1 1 1 1 1 1 1 1 1 1 1 1 1 1 1 1 1 1 ",
"1 1 0 1 1 1 1 1 1 1 1 1 1 1 1 ;.;.:.;.F G G G G G G @.<.<.2.2.3.5.6.4.1.,.@.>.>.0 0 0 0 | | 1 1 1 1 1 1 1 1 1 1 1 1 1 1 1 1 1 u ",
"1 1 0 1 1 1 1 1 1 1 1 1 1 1 ;.:.:.7.1 F G G G G G G 2.2.2.0 0 8.9.5.3.1.1.>.0.0.0 0 0 0 | | 1 1 1 1 1 1 1 1 1 1 1 1 1 1 1 1 1 u ",
"1 1 n n n v v v v v v v v 7.:.7.7.q.c v G G G w.e.e.r.c c c c c c c c c t.y.u.u.i.c c p.v v v M q.c v v n n v v n n n n v v v v ",
"1 1 V V V 1 1 1 1 1 1 1 1 7.:.7.7.a.N 1 G G G s.<.<.d.0 0 0 0 0 0 0 0 0 f.g.h.h.j.0 d k.1 1 1 r a.N 1 1 V V 1 1 V V V V 1 1 1 1 ",
"1 1 1 1 1 1 1 1 1 ) ) ) 7.:.7.1 l.z.1 1 1 1 x.x.5.5.< < < < < < < < < < < < c.c.v.< b.1 1 1 1 1 y 1 1 1 1 1 1 1 1 1 1 1 1 1 1 1 ",
"1 1 1 1 1 1 1 1 e 1 7.7.:.7.1 1 r t 1 1 n.n.m.s.1 1 1 1 1 1 1 1 1 1 1 1 1 1 M.M.N.0 h 0 1 1 q q q 1 1 1 1 1 1 1 1 1 1 1 1 1 1 1 ",
"1 1 1 1 1 1 1 1 1 1 7.7.:.7.1 1 1 y 1 1 n.n.m.s.1 1 1 1 1 1 1 1 1 1 1 1 1 1 M.M.N.1 e 1 1 1 1 r t 1 1 1 1 1 1 1 1 1 1 1 1 1 1 1 ",
"1 1 1 1 1 1 1 1 1 1 7.7.:.7.1 1 1 y 1 1 n.n.m.s.1 1 1 1 1 1 1 1 1 1 1 1 1 1 M.M.N.1 1 1 1 1 1 1 y 1 1 1 1 1 1 1 1 1 1 1 1 1 1 1 ",
"1 1 1 1 1 1 1 1 1 7.:.:.;.1 1 1 u i 0 s.m.m.1 1 1 1 1 1 1 1 1 1 1 1 1 1 1 1 M.M.N.1 1 1 1 1 1 u i 0 1 1 1 1 1 1 1 1 1 1 1 1 1 1 ",
"1 1 1 1 1 1 1 1 1 7.:.:.;.1 1 1 u i 0 s.m.m.1 1 1 1 1 1 1 1 1 1 1 1 1 1 1 1 M.M.N.1 1 1 1 1 1 u i 0 1 1 1 1 1 1 1 1 1 1 1 1 1 1 ",
"1 1 q q q q q q q 7.7.7.q q q q q q q t.t.t.q q q q q q q q q q q q q q q q q q B.~ q q q q q q q q q q q q q q q q q q q q q q ",
"1 1 0 1 1 f f V.e e C.C.C.e e 1 e Z.1 1 1 1 1 1 1 1 1 1 1 1 1 u i i 0 1 1 f f 1 e e C.C.e e 1 e Z.1 1 1 1 1 1 1 1 1 1 1 1 1 1 u ",
"1 1 1 1 1 1 1 1 1 1 1 1 1 1 1 1 1 1 1 1 1 1 1 1 1 1 1 1 1 1 1 1 y y 1 1 1 1 1 1 1 1 1 1 1 1 1 1 1 1 1 1 1 1 1 1 1 1 1 1 1 1 1 1 ",
"1 1 1 1 1 1 1 1 1 1 1 1 1 1 1 1 1 1 1 1 1 1 1 1 1 1 1 1 1 1 1 r t t 1 1 1 1 1 1 1 1 1 1 1 1 1 1 1 1 1 1 1 1 1 1 1 1 1 1 1 1 1 r ",
"1 1 1 1 1 1 1 1 1 1 1 1 1 1 1 1 1 1 1 1 1 1 1 1 0 0 Z 1 q q q q q q 1 1 1 1 1 1 1 1 1 1 1 1 1 1 1 1 1 1 1 1 1 1 0 0 Z 1 q q q q ",
"1 1 1 1 1 1 1 1 1 1 1 1 1 1 1 1 1 1 1 1 1 1 1 1 1 1 A e e e 1 1 y y 1 1 1 1 1 1 1 1 1 1 1 1 1 1 1 1 1 1 1 1 1 1 1 1 A e e e 1 1 ",
"1 1 0 1 1 1 1 1 1 1 1 1 1 1 1 1 1 1 1 1 1 1 1 1 1 1 1 1 1 1 1 u i i 0 1 1 1 1 1 1 1 1 1 1 1 1 1 1 1 1 1 1 1 1 1 1 1 1 1 1 1 1 u ",
"1 1 q q q q q q q q q q q q q q q q q q q q q q q q q q q q q q q q q q q q q q q q q q q q q q q q q q q q q q q q q q q q q q ",
"1 1 q q q q q q q q q q q q q q q q q q q q q q q q q q q q q q q q q q q q q q q q q q q q q q q q q q q q q q q q q q q q q q ",
"1 1 1 1 1 1 1 1 1 1 1 1 1 1 1 1 a s d 1 1 f f g p p A.S.S.S.p j 1 1 1 1 1 1 1 1 1 1 1 1 1 1 1 a s d 1 1 p p 1 1 p p A.S.S.S.p j ",
"1 1 1 1 1 u u N N 1 1 1 D.1 1 = = F.1 1 1 1 1 1 1 1 1 1 1 1 1 1 1 1 1 1 1 u u N N 1 G.1 1 1 = = F.1 1 1 1 1 1 1 1 1 1 1 1 1 1 1 ",
"1 1 1 1 1 u u N N 1 1 1 D.1 1 = = F.1 1 1 1 1 1 1 1 1 1 1 1 1 1 1 1 1 1 1 u u N N 1 G.1 1 1 = = F.1 1 1 1 1 1 1 1 1 1 1 1 1 1 1 ",
"1 1 1 1 1 5 5 ( < 1 1 1 H.1 1 J.=.K.1 1 1 1 1 1 1 1 1 1 1 1 1 1 1 1 1 1 1 5 5 *.< 1 L.j 1 1 J.=.K.1 1 1 1 1 1 1 1 1 1 1 1 1 1 1 "
};
