/* XPM */
static char *aeb050e9d8fa47eddfd1b2a1cc0fc8b0xiBstNPdENnJLGRI[] = {
/* columns rows colors chars-per-pixel */
"16 16 139 2 ",
"   c #303B38",
".  c #313C39",
"X  c #3B413C",
"o  c #3F403D",
"O  c #6E4D3E",
"+  c #4D4240",
"@  c #404947",
"#  c #4D504D",
"$  c #565351",
"%  c #5B5A5E",
"&  c #754D4C",
"*  c #6C594F",
"=  c #725445",
"-  c #7F5D4D",
";  c #685B56",
":  c #725C5F",
">  c #625F63",
",  c #7F5C61",
"<  c #756F74",
"1  c #757070",
"2  c #883433",
"3  c #8F3434",
"4  c #8A3C35",
"5  c #8C3F3F",
"6  c #913535",
"7  c #9A3C3A",
"8  c #83473C",
"9  c #92403D",
"0  c #A53F40",
"q  c #9A4642",
"w  c #954A47",
"e  c #825B48",
"r  c #895B49",
"t  c #925C49",
"y  c #9E5151",
"u  c #A45D5D",
"i  c #BD5252",
"p  c #8C6150",
"a  c #8E6555",
"s  c #8B6B5F",
"d  c #906B56",
"f  c #A16C56",
"g  c #A46C57",
"h  c #8B6F65",
"j  c #856D6E",
"k  c #847473",
"l  c #8B7573",
"z  c #81747B",
"x  c #8E7078",
"c  c #887578",
"v  c #9F7976",
"b  c #98757B",
"n  c #9B777C",
"m  c #9D7B79",
"M  c #A46960",
"N  c #A16867",
"B  c #AA7B6A",
"V  c #A17870",
"C  c #A27B74",
"Z  c #AA757F",
"A  c #A17B7F",
"S  c #988A6D",
"D  c #A1807D",
"F  c #A8817A",
"G  c #A8837D",
"H  c #B08070",
"J  c #BC8772",
"K  c #B5897F",
"L  c #9C7D81",
"P  c #9D7F84",
"I  c #A27C80",
"U  c #A47D81",
"Y  c #AC7983",
"T  c #A97F82",
"R  c #9C8181",
"E  c #9E8085",
"W  c #878B94",
"Q  c #968F9B",
"!  c #A18286",
"~  c #A68486",
"^  c #AA8283",
"/  c #AC8083",
"(  c #AB8384",
")  c #AC8284",
"_  c #A98687",
"`  c #AE8586",
"'  c #AE8887",
"]  c #A48488",
"[  c #AD878B",
"{  c #A7898A",
"}  c #A1888D",
"|  c #A88A8A",
" . c #AE898B",
".. c #AA8E8D",
"X. c #AC8C8D",
"o. c #B18781",
"O. c #B78084",
"+. c #B08B8A",
"@. c #B68989",
"#. c #B98C8A",
"$. c #BC8F8C",
"%. c #A1918D",
"&. c #B3918F",
"*. c #BA918F",
"=. c #BD928F",
"-. c #A18A94",
";. c #AE8E90",
":. c #B08D90",
">. c #AE9496",
",. c #B79391",
"<. c #B09097",
"1. c #BE9290",
"2. c #BA9693",
"3. c #BF9491",
"4. c #B69D9D",
"5. c #BE9B98",
"6. c #BF9C99",
"7. c #BF9B9E",
"8. c #BEAC93",
"9. c #AF9DAE",
"0. c #BE9EA2",
"q. c #9AA2BF",
"w. c #9CA2BD",
"e. c #B3A1AC",
"r. c #A3A7BF",
"t. c #C1918E",
"y. c #D39D85",
"u. c #C29390",
"i. c #C39490",
"p. c #C49691",
"a. c #C19893",
"s. c #C19996",
"d. c #C69B96",
"f. c #C09C99",
"g. c #DDB087",
"h. c #C0A6AF",
"j. c #C1AAB0",
"k. c #C6B0BA",
"l. c #B5C4DA",
/* pixels */
">.| | X.| ~ ~ E ] | | X.| ~ ~ } ",
"2.i.i.i.i.u.u.) $.i.i.i.u.u.u.~ ",
"..` ) I U +.+.^  .` ) n ) +.+.~ ",
"5.p.i.@.@.i.i.i.i.i.i.U t.i.i.s.",
";. .&. .( ` ` I ( H J K ` ` ` ] ",
"2.i.i.i.i.t.u.I o.t f g B t.=.L ",
"{ T ( n A `  .^ N t h d s  .&.| ",
"6.i.p.@.@.O.Z z w 8 y.g.G 1.i.s.",
";. .+.` :.-.< : k q 0 i , Q [ P ",
",.i.i.i.k.W 5 y p r & u ,.l.4._ ",
"..` T m %.; 7 4 O % > c _ 1 R | ",
"6.p.d.8.S 9 6 + .     @ D i.i.s.",
"..' 9.w.Y 3 2 o $ l # X * ^ ` ! ",
",.h.r.7.i.M = j #.t.t.F e F *.L ",
"e.q.<.b v a G +.` / ` x - C ,.X.",
"j.0.i.*.^ F 3.i.i.i.a. .3.V 3.f."
};
