/* XPM */
static char *edc2fce5a0834c7ae66698fc7af26ce25VhDrPxL0CYJ1L3c[] = {
/* columns rows colors chars-per-pixel */
"16 16 68 1 ",
"  c #6E5967",
". c #6F5A68",
"X c #6F5C69",
"o c #705A68",
"O c #745B69",
"+ c #715E6B",
"@ c #765C6A",
"# c #735F6C",
"$ c #71606B",
"% c #72616C",
"& c #74616E",
"* c #75646F",
"= c #78636F",
"- c #776671",
"; c #786370",
": c #786872",
"> c #7B6A75",
", c #7D6B77",
"< c #7E6C78",
"1 c #82606E",
"2 c #86626F",
"3 c #8A6270",
"4 c #8C6371",
"5 c #8D6471",
"6 c #8A6872",
"7 c #8B6B74",
"8 c #916572",
"9 c #956773",
"0 c #976774",
"q c #946974",
"w c #936E76",
"e c #966C76",
"r c #996875",
"t c #9C6F78",
"y c #96747A",
"u c #9D757B",
"i c #9E767C",
"p c #9E7A7E",
"a c #A16B77",
"s c #A26C77",
"d c #A26B78",
"f c #A36C78",
"g c #A66F7A",
"h c #A86E7A",
"j c #AC6F7B",
"k c #AA727B",
"l c #AD707B",
"z c #AF737C",
"x c #A8767D",
"c c #AE777E",
"v c #AB797F",
"b c #B0767E",
"n c #9F7D80",
"m c #A57F81",
"M c #A87D80",
"N c #B07A81",
"B c #B17D82",
"V c #B47C82",
"C c #A08183",
"Z c #A28384",
"A c #A28485",
"S c #B78084",
"D c #B88285",
"F c #BA8B8A",
"G c #BB8E8C",
"H c #BC8E8C",
"J c #C39390",
"K c #C39490",
/* pixels */
":#+%+&+&X&+&+%+&",
"<  oooooooooo  .",
"%  rhhhhhhhhfO o",
"<  rhhhhhhhhgO  ",
"$  2888228884o o",
"<  alzStxDblh@  ",
"%  slVKmyFNgg@ o",
",  rhcHuMHBhdO .",
"* 188qnCAZe883o.",
"> allVKKKKbljg@.",
"- sllVKKKJbhg9o.",
": 0hhcGHHFkhhfO.",
": o28ep6wpq85o .",
"-  shgi7vVllh@ .",
">  0ggg4rgggdO .",
":#&+&+;+;+=+&+%&"
};
