/* XPM */
static char *_ec5c12f2d6b4f08ab57311e17304f8d5jfLxTbBrZaj9UEI[] = {
/* columns rows colors chars-per-pixel */
"64 64 122 2 ",
"   c #6E5967",
".  c #6F5C68",
"X  c #705967",
"o  c #745C69",
"O  c #7C5D6B",
"+  c #75626F",
"@  c #7C626D",
"#  c #766A72",
"$  c #7B6975",
"%  c #7B7579",
"&  c #7D797C",
"*  c #815F6D",
"=  c #85616E",
"-  c #8A636F",
";  c #8C6371",
":  c #866A72",
">  c #8D6A73",
",  c #936573",
"<  c #996775",
"1  c #916E76",
"2  c #9D6976",
"3  c #9E6B78",
"4  c #917177",
"5  c #947479",
"6  c #98767B",
"7  c #957B7F",
"8  c #A26B77",
"9  c #A56C78",
"0  c #AA6F7A",
"q  c #A3747B",
"w  c #AD707B",
"e  c #A67B7F",
"r  c #A87A7F",
"t  c #B1767E",
"y  c #B3797F",
"u  c #967C80",
"i  c #A77B80",
"p  c #AF7F83",
"a  c #AF7F82",
"s  c #AE7D81",
"d  c #AA7F81",
"f  c #B37980",
"g  c #B37A80",
"h  c #B37A81",
"j  c #B37B81",
"k  c #B27C81",
"l  c #B47C81",
"z  c #B47C82",
"x  c #B67F83",
"c  c #B47D82",
"v  c #958991",
"b  c #9A8F96",
"n  c #9A8F96",
"m  c #A78182",
"M  c #AB8384",
"N  c #AC8485",
"B  c #AF8686",
"V  c #B78083",
"C  c #B48084",
"Z  c #B78084",
"A  c #B78184",
"S  c #B38787",
"D  c #B78184",
"F  c #B88184",
"G  c #B88284",
"H  c #B88285",
"J  c #B88385",
"K  c #B98586",
"L  c #BA8486",
"P  c #B98687",
"I  c #BB8787",
"U  c #B98586",
"Y  c #B48887",
"T  c #BA8688",
"R  c #BA8788",
"E  c #BB8788",
"W  c #BB8788",
"Q  c #B58988",
"!  c #B68A89",
"~  c #B78A89",
"^  c #BB8888",
"/  c #BC8889",
"(  c #BC8A89",
")  c #BD8A8A",
"_  c #BD8B8A",
"`  c #BE8B8A",
"'  c #B88C8A",
"]  c #B98D8A",
"[  c #B98C8B",
"{  c #BA8D8B",
"}  c #BE8C8B",
"|  c #BE8D8B",
" . c #BB8E8C",
".. c #BC8F8C",
"X. c #BF8E8C",
"o. c #BD8A8A",
"O. c #B3ADB1",
"+. c #B3ADB1",
"@. c #C08F8D",
"#. c #C0908D",
"$. c #C1908E",
"%. c #C1918E",
"&. c #C1928E",
"*. c #C1928F",
"=. c #C2928F",
"-. c #C2938F",
";. c #C1928E",
":. c #C39490",
">. c #C39590",
",. c #C49792",
"<. c #C39490",
"1. c #C49892",
"2. c #C59993",
"3. c #C69A95",
"4. c #C79D96",
"5. c #C8A098",
"6. c #C9A29A",
"7. c #CBA79D",
"8. c #CFADA2",
"9. c #CFAEA2",
"0. c #CFAEA3",
"q. c #CFAFA3",
/* pixels */
"                                                                                                                                ",
"                                                                                                                                ",
"                                                                                                                                ",
"                                                                                                                                ",
"                                                                                                                                ",
"                                                                                                                                ",
"                                                                                                                                ",
"                                                                                                                                ",
"                          X O * = = = = = = = = = = = = = = = = = = = = = = = = = = = = = = = = = = = * O X                     ",
"                          O ; 2 9 0 0 0 0 0 0 0 0 0 0 0 0 9 0 0 0 0 0 0 0 0 0 0 9 0 0 0 0 0 0 0 0 0 0 2 , O                     ",
"                          O ; 2 0 0 0 0 0 0 0 0 0 0 0 0 0 0 0 0 0 0 0 0 0 0 0 0 0 0 0 0 0 0 0 0 0 0 0 2 , O                     ",
"                          O 2 9 w w w w w w w w w w w w w w w w w w w w w w w w w w w w w w w w w w w 0 8 =                     ",
"                          * 9 w w w w w w w w w w w w w w w w w w w w w w w w w w w w w w w w w w w w w 0 =                     ",
"                          * 9 0 w w w w w w w w w w w w w w w w w w w w w w w w w w w w w w w w w w w 0 0 =                     ",
"                          O 2 9 w w w w w w w w w w w w w w w w w w w w w w w w w w w w w w w w w w w 9 2 *                     ",
"                          O 2 9 w w w w w w w w w w w w w w w w w w w w w w w w w w w w w w w w w w w 9 2 *                     ",
"                          O ; < 9 9 9 9 9 9 9 9 9 9 9 9 9 9 9 9 9 9 9 9 9 9 9 9 9 9 9 9 9 9 9 9 9 9 9 2 ; O                     ",
"                          X o O O O O O O O O O O O O O O O O O O O O O O O O O O O O O O O O O O O O O O X                     ",
"                          X O O = = = = = = = = = = = = = = = O X X O O = = = = = = = = = = = = = = = O O X                     ",
"                          O ; 2 0 0 0 0 0 0 0 0 0 0 0 0 0 0 0 < o O , 8 0 0 0 0 0 0 0 0 0 0 0 0 0 0 0 2 , O                     ",
"                          O ; 2 0 0 0 0 0 0 0 0 0 0 0 0 0 0 0 < o O , 8 0 0 0 0 0 0 0 0 0 0 0 0 0 0 0 2 , O                     ",
"                          O 2 9 w w w w w w w w w w w w w w w 2 o = 8 0 w w w w w w w w w w w w w w w 9 8 *                     ",
"                          * 9 w w w w w w w w w w w t t t w w 2 O ; w t t t t t t w w w w w w w w w w w 0 =                     ",
"                          * 9 w w w w w w w w t t A _ | _ F F q O > k L | | | | _ F y y w w w w w w w w 0 =                     ",
"                          * 9 w w w w w w w w V V _ -.:.-._ _ e @ 1 L @.:.:.:.:.-.| F F w w w w w w w w 0 =                     ",
"                          * 9 w w w w w w w w ^ ^ -.-.:.-.-.-.M @ 4 ! ' X.X.-.-.-.@.T T w 0 0 0 0 0 0 0 0 =                     ",
"                          * 9 w w w w w w w w ^ ^ -.-.:.-.-.-.M @ 4 ! ' X.X.-.-.-.@.T T w 0 0 0 0 0 0 0 0 =                     ",
"                          * 9 w w w w w w w w _ _ :.:.:.:.:.:.N @ @ : : 5 5 ' ^ c g w w 3 8 0 8 < < < 8 0 =                     ",
"                          * 9 w w w w w w w w _ _ :.:.:.:.:.:.N @ @ : : 5 5 ' ^ g g w w 2 8 0 8 < < < 8 0 =                     ",
"                          * 9 0 w w w w w w w ^ ^ -.-.:.-.-.-.M @ 4 ! '  . .-.-.-.@.T T w 0 0 0 0 0 0 0 0 =                     ",
"                          O < 9 w w w w w w w A A _ -.:.-.T T q O > A | :.:.:.:.-.| F F w w w w w w w 9 2 *                     ",
"                          O < 9 w w w w w w w A A _ -.:.-.T T q O > A | :.:.:.:.-.| F F w w w w w w w 9 2 *                     ",
"                          o ; < 8 8 8 8 8 8 9 w w s Y ! S w w , o = 9 s ! ! ! ! ! s w w 9 8 8 8 8 8 8 < ; O                     ",
"                          X o O O O O O O O O O O @ @ @ @ O O o   X O @ @ @ @ @ @ @ @ @ O O O O O O O O o X                     ",
"                  o O O = = = = = = = = = = - ; ; > > 5 7 u u 7 4 5 7 u u u u 5 4 > ; ; = = = = = = = = = = = O O o             ",
"                  * < < 9 0 0 0 0 0 0 0 0 0 w g g L -.5.9.9.9.7.,.5.9.q.9.9.9.5.-.L g g w 0 0 0 0 0 0 0 0 0 9 < < *             ",
"                  * < < 9 0 0 0 0 0 0 0 0 0 w g g L -.5.9.9.9.7.,.5.9.9.9.9.9.5.-.L g g w 0 0 0 0 0 0 0 0 0 9 < < *             ",
"                  ; 9 9 0 w w w w w w w w w w F F X.-.1.4.4.4.3.:.1.4.4.4.4.4.1.-.c w w w w w w w w w w w w 0 9 9 ; X           ",
"                  ; w w w w w w w w w w w w w _ _ :.:.:.:.:.:.:.:.:.:.:.:.:.:.:.-.c w w w w w w w w w w w w w w w , X           ",
"                  ; w w w w w w w w w w w w w _ _ :.:.:.:.:.:.:.:.:.:.:.:.:.:.:.-.c w w w w 0 0 0 0 0 0 0 0 0 0 0 , X           ",
"                  ; w w w w w w w w w w w w w _ _ :.:.:.:.:.:.:.:.:.:.:.:.:.:.:.-.c 0 0 0 w 0 8 2 2 2 9 0 < ; ; ; *             ",
"                  ; w w w w w w w w w w w w w _ _ :.:.:.:.:.:.:.:.:.:.:.:.:.:.:.-.c 0 0 w w 0 8 2 2 2 9 0 < ; ; ; *             ",
"                  ; w w w w w w w w w w w w w _ _ :.:.:.:.:.:.:.:.:.:.:.:.:.:.:.-.c w 0 w w 0 2 < < < 2 0 ; o o o o             ",
"                  ; w w w w w w w w w w w w w _ _ :.:.:.:.:.:.:.:.:.:.:.:.:.:.:.-.c w 0 w w 0 0 9 9 9 0 0 8 2 2 2 ; X           ",
"                  ; w w w w w w w w w w w w w _ _ :.:.:.:.:.:.:.:.:.:.:.:.:.:.:.-.c w w w w w w w w w w w w w w w , X           ",
"                  ; 0 0 0 w w w w w w w w w w T T -.-.:.:.:.:.:.:.:.:.:.:.:.-.-.-.j w w w w w w w w w w w w 0 0 0 , X           ",
"                  = 2 2 9 w w w w w w w w w w c c _ -.<.:.:.:.:.:.:.:.:.:.:.-.| L t w w w w w w w w w w w w 0 2 2 ; X           ",
"                  = 2 2 9 w w w w w w w w w w c c _ -.<.:.:.:.:.:.:.:.:.:.:.-.| L t w w w w w w w w w w w w 0 2 2 ; X           ",
"                  O ; ; < 2 2 2 2 2 2 2 2 2 2 q q r N N N N N N N N N N N N N d q 9 2 2 2 2 2 2 2 2 2 2 2 2 < ; ; O             ",
"                  X X X o o o o o o O O o o o O O O @ @ @ @ @ @ @ @ @ @ @ @ @ @ O o o o o o O O o o o o o O o o o X             ",
"                          X O = - - - - - - ; 1 1 5 5 5 4 > > = X O ; 1 5 5 5 5 4 > - - - - - - - - - = O X                     ",
"                          O , 8 w w w w w w w T T -.-.:.-.c c 2 O ; w ^ :.:.-.-.X.c w w w w w w w w w 8 , O                     ",
"                          O , 8 w w w w w w w T T -.-.:.-.c c 2 O ; w ^ :.:.-.-.X.c w w w w w w w w w 8 , O                     ",
"                          O 8 0 w w w w w w w c c _ -.:.-.| | i @ 1 T X.:.:.-.| F t w w w w w w w w w 0 8 =                     ",
"                          * 9 w w w w 0 9 9 9 w w k d m m m m 6 + 1 L T T T T A y w w w w w w w w w w w 0 =                     ",
"                          * 9 w w w w 9 < < < 9 9 2 @ o o o o o   ; w w w w w w w w w w w w w w w w w w 0 =                     ",
"                          * 9 w w w w 0 8 8 8 0 0 9 , , , , , = o ; 0 w w w w w w w w w w w w w w w w w 0 =                     ",
"                          * 9 w w w w 0 8 8 8 0 0 9 , , , , , = o ; 0 w w w w w w w w w w w w w w w w w 0 =                     ",
"                          * 8 0 w w w 0 0 0 0 0 0 0 0 0 0 0 0 < o - 9 0 w w w w w w w w w w w w w w w 0 9 =                     ",
"                          O < 8 0 0 0 0 0 0 0 0 0 0 0 0 0 2 2 ; o * < 9 0 0 0 0 0 0 0 0 0 0 0 0 0 0 0 8 < O                     ",
"                          o * ; , , , , , , , , , , , , , = = O X o * ; , , , , , , , , , , , , , , , ; * o                     ",
"                              X X X X X X X X X X X X X X             X X X X X X X X X X X X X X X X X                         ",
"                              X X X X X X X X X X X X X X             X X X X X X X X X X X X X X X X X                         ",
"                                                                                                                                "
};
